<svg id="Layer_1" data-name="Layer 1" xmlns="http://www.w3.org/2000/svg" viewBox="0 0 399.28 113.51"><defs><style>.cls-1{fill:#cedbed;}</style></defs><title>CW - Full Logo_02</title><path class="cls-1" d="M349.46,428.31c0-6.48,2.38-10.13,7.34-10.13,3.79,0,5.53,2.19,6.43,4.85l-2.84,1c-.58-1.8-1.4-3.2-3.61-3.2-2.78,0-4,2.27-4,5.86V430c0,3.59,1.21,5.86,4,5.86,2.21,0,3-1.4,3.61-3.19l2.84.95c-.9,2.66-2.64,4.85-6.43,4.85C351.84,438.43,349.46,434.78,349.46,428.31Z" transform="translate(-98 -364.19)"/><path class="cls-1" d="M367,417.34h3.05v8.75h.14a4.17,4.17,0,0,1,4.18-2.8c2.92,0,4.88,2,4.88,5.49v9.31h-3.06v-8.86c0-2.3-1-3.45-3-3.45-1.57,0-3.14.82-3.14,2.5v9.81H367Z" transform="translate(-98 -364.19)"/><path class="cls-1" d="M395.29,438.09a2.54,2.54,0,0,1-2.78-2.44h-.14c-.56,1.74-2.07,2.78-4.35,2.78-2.94,0-4.85-1.65-4.85-4.37s2.05-4.32,6.34-4.32h2.78v-1.13c0-1.93-1-2.94-3.12-2.94a4.07,4.07,0,0,0-3.72,2l-1.83-1.49c.81-1.57,2.78-2.88,5.83-2.88,3.65,0,5.89,1.82,5.89,5.13v7.26h1.83v2.41Zm-3-4.32v-2.1h-2.72c-2.25,0-3.31.7-3.31,2v.56c0,1.29,1,2,2.63,2C390.86,436.19,392.29,435.2,392.29,433.77Z" transform="translate(-98 -364.19)"/><path class="cls-1" d="M398.88,423.62h2.61l1.4,12.17h.25l2.16-12.17h3l2.13,12.17h.25l1.43-12.17h2.5l-2,14.47h-3.76l-1.94-11.21h-.25l-2,11.21H400.9Z" transform="translate(-98 -364.19)"/><path class="cls-1" d="M418,435.63h4.94v-9.54H418v-2.47h8v12h4.63v2.46H418Zm4.38-16.3v-.59c0-.92.56-1.65,2.07-1.65s2.11.73,2.11,1.65v.59c0,.93-.57,1.66-2.08,1.66S422.36,420.26,422.36,419.33Z" transform="translate(-98 -364.19)"/><path class="cls-1" d="M441.26,438.09a3.35,3.35,0,0,1-3.7-3.67v-8.33H433.1v-2.47h3.17c1.07,0,1.49-.36,1.49-1.48v-3.62h2.86v5.1h6.17v2.47h-6.17v9.54h6.17v2.46Z" transform="translate(-98 -364.19)"/><path class="cls-1" d="M467.74,438.09l-1.4-19.57h2.75l.7,11.38.31,5h.22l2.22-11.66h3.11l2.22,11.66h.22l.31-5,.73-11.38h2.63l-1.4,19.57h-4.2l-2-11.33h-.22l-2,11.33Z" transform="translate(-98 -364.19)"/><path class="cls-1" d="M488.44,436.44v-.73c0-1.07.68-1.94,2.44-1.94s2.44.87,2.44,1.94v.73c0,1.06-.67,1.93-2.44,1.93S488.44,437.5,488.44,436.44Z" transform="translate(-98 -364.19)"/><path class="cls-1" d="M349.06,462c0-6.4,2.22-10.13,7.18-10.13s7.18,3.73,7.18,10.13-2.21,10.12-7.18,10.12S349.06,468.36,349.06,462Zm11,1.62v-3.28c0-3.59-1-5.86-3.85-5.86s-3.84,2.27-3.84,5.86v3.31c0,3.59,1,5.86,3.84,5.86S360.09,467.21,360.09,463.59Z" transform="translate(-98 -364.19)"/><path class="cls-1" d="M367,471.75V457.28h3.05v2.47h.14a4.17,4.17,0,0,1,4.18-2.8c2.92,0,4.88,2,4.88,5.49v9.31h-3.06v-8.86c0-2.3-1-3.45-3-3.45-1.57,0-3.14.82-3.14,2.5v9.81Z" transform="translate(-98 -364.19)"/><path class="cls-1" d="M389.88,477.7c-5,0-6.74-1.32-6.74-3.48,0-1.57.93-2.38,2.53-2.8v-.28a2.14,2.14,0,0,1-1.6-2.11c0-1.43,1.09-2.07,2.61-2.44v-.14A4.64,4.64,0,0,1,383.9,462c0-3.08,2.33-5.07,5.89-5.07a7.42,7.42,0,0,1,2.72.47V457a1.81,1.81,0,0,1,1.94-2h2.63v2.41h-3.36v.68a4.56,4.56,0,0,1,2,3.95c0,3.09-2.33,5.05-5.89,5.05a9.22,9.22,0,0,1-1.79-.17c-.68.17-1.52.62-1.52,1.4s1,1,2.25,1H392c3.9,0,5.5,1.63,5.5,4C397.48,476.3,395,477.7,389.88,477.7Zm2-5.78h-5a1.7,1.7,0,0,0-1.06,1.63c0,1.09.84,2,3,2h2.27c2.3,0,3.57-.7,3.57-2C394.62,472.54,393.94,471.92,391.89,471.92Zm.79-9.53v-.76c0-1.54-.93-2.58-2.89-2.58s-2.89,1-2.89,2.58v.76c0,1.54.93,2.58,2.89,2.58S392.68,463.93,392.68,462.39Z" transform="translate(-98 -364.19)"/><path class="cls-1" d="M400.4,464.52c0-4.63,2.58-7.57,6.84-7.57a5.67,5.67,0,0,1,5.64,3.42l-2.39,1.29a3.21,3.21,0,0,0-3.25-2.19c-2.3,0-3.65,1.54-3.65,3.84v2.41a3.5,3.5,0,0,0,3.7,3.85,3.7,3.7,0,0,0,3.57-2.3l2.24,1.37a6,6,0,0,1-5.83,3.45C403,472.09,400.4,469.14,400.4,464.52Z" transform="translate(-98 -364.19)"/><path class="cls-1" d="M417.51,451h3.05v8.75h.14a4.17,4.17,0,0,1,4.18-2.8c2.92,0,4.88,2,4.88,5.49v9.31H426.7v-8.86c0-2.3-1-3.45-3-3.45-1.57,0-3.14.82-3.14,2.5v9.81h-3.05Z" transform="translate(-98 -364.19)"/><path class="cls-1" d="M445.78,471.75a2.54,2.54,0,0,1-2.78-2.44h-.14c-.56,1.74-2.08,2.78-4.35,2.78-2.94,0-4.85-1.65-4.85-4.38s2-4.31,6.34-4.31h2.78v-1.13c0-1.93-1-2.94-3.12-2.94a4.08,4.08,0,0,0-3.73,2l-1.82-1.49c.81-1.57,2.78-2.88,5.83-2.88,3.65,0,5.89,1.82,5.89,5.13v7.26h1.83v2.41Zm-3-4.32v-2.1h-2.72c-2.25,0-3.31.7-3.31,2v.56c0,1.29,1,2,2.63,2C441.35,469.85,442.78,468.86,442.78,467.43Z" transform="translate(-98 -364.19)"/><path class="cls-1" d="M450.94,469.29h3.84v-9.54h-3.84v-2.47h6.9v3.84H458c.56-2,1.82-3.84,4.76-3.84h1.74v2.92h-2.86a3.52,3.52,0,0,0-3.81,3.67v5.42h5.24v2.46H450.94Z" transform="translate(-98 -364.19)"/><path class="cls-1" d="M468.47,469.29h4.94v-9.54h-4.94v-2.47h8v12h4.63v2.46H468.47Zm4.38-16.3v-.59c0-.92.56-1.65,2.07-1.65s2.1.73,2.1,1.65V453c0,.93-.56,1.66-2.07,1.66S472.85,453.92,472.85,453Z" transform="translate(-98 -364.19)"/><path class="cls-1" d="M491.75,471.75a3.35,3.35,0,0,1-3.7-3.67v-8.33h-4.46v-2.47h3.17c1.07,0,1.49-.36,1.49-1.48v-3.62h2.86v5.1h6.17v2.47h-6.17v9.54h6.17v2.46Z" transform="translate(-98 -364.19)"/><polygon class="cls-1" points="88.47 0.17 124.46 107.54 144.53 107.54 108.53 0.17 88.47 0.17"/><polygon class="cls-1" points="137.73 0.17 173.72 107.54 193.78 107.54 157.79 0.17 137.73 0.17"/><rect class="cls-1" x="197.96" y="0.17" width="16.3" height="24.59"/><polygon class="cls-1" points="63.8 15.84 63.8 0 15.84 0 0 0 0 15.84 0 91.66 0 107.5 15.84 107.5 63.8 107.5 63.8 91.66 16.78 91.66 16.78 15.84 63.8 15.84"/></svg>